<svg width="156" height="29" viewBox="0 0 156 29" fill="none" xmlns="http://www.w3.org/2000/svg">
<g clip-path="url(#clip0_2016_9)">
<mask id="mask0_2016_9" style="mask-type:luminance" maskUnits="userSpaceOnUse" x="0" y="0" width="156" height="29">
<path d="M0.5 0H155.5V29H0.5V0Z" fill="white"/>
</mask>
<g mask="url(#mask0_2016_9)">
<path d="M10.9473 23.9705C7.96027 26.9565 2.90327 26.9445 1.49027 22.9645C0.280047 19.5569 0.174175 15.8547 1.18769 12.3835C2.20121 8.91236 4.28259 5.84876 7.13625 3.62779C9.98991 1.40681 13.4708 0.141365 17.0845 0.0111618C20.6983 -0.119041 24.2612 0.892617 27.2673 2.90247C30.4506 5.02935 32.8337 8.15712 34.0394 11.7908C35.2452 15.4244 35.2046 19.3564 33.9243 22.9645C32.5123 26.9445 27.4543 26.9565 24.4683 23.9705L19.8583 19.3605C19.4183 18.9205 19.4633 18.1945 19.5853 17.5835C19.6411 17.3056 19.6345 17.0187 19.566 16.7437C19.4975 16.4686 19.3688 16.2122 19.1892 15.9929C19.0096 15.7736 18.7835 15.5969 18.5273 15.4756C18.2712 15.3543 17.9912 15.2913 17.7078 15.2913C17.4243 15.2913 17.1444 15.3543 16.8882 15.4756C16.632 15.5969 16.4059 15.7736 16.2263 15.9929C16.0467 16.2122 15.918 16.4686 15.8495 16.7437C15.781 17.0187 15.7744 17.3056 15.8303 17.5835C15.9513 18.1935 15.9973 18.9205 15.5563 19.3605L10.9473 23.9705ZM48.9143 19.8395H53.5403V22.5645H45.3833V8.06947H48.9143V19.8395ZM59.8503 22.7305C58.7203 22.7305 57.7023 22.4895 56.7933 22.0075C55.9049 21.5319 55.1679 20.8164 54.6663 19.9425C54.1573 19.0475 53.9033 18.0015 53.9033 16.8035C53.9033 15.6205 54.1643 14.5805 54.6873 13.6855C55.1884 12.7987 55.934 12.0749 56.8353 11.6005C57.7433 11.1185 58.7623 10.8775 59.8913 10.8775C61.0203 10.8775 62.0383 11.1185 62.9473 11.6005C63.8482 12.075 64.5935 12.7988 65.0943 13.6855C65.6173 14.5805 65.8793 15.6195 65.8793 16.8035C65.8793 17.9875 65.6103 19.0335 65.0743 19.9425C64.5644 20.8246 63.8114 21.5415 62.9053 22.0075C61.9973 22.4895 60.9793 22.7305 59.8503 22.7305ZM59.8503 19.6745C60.5243 19.6745 61.0953 19.4265 61.5633 18.9305C62.0453 18.4355 62.2863 17.7265 62.2863 16.8035C62.2863 15.8815 62.0523 15.1735 61.5843 14.6775C61.3728 14.4382 61.1119 14.2478 60.8196 14.1193C60.5273 13.9909 60.2105 13.9274 59.8913 13.9335C59.2023 13.9335 58.6313 14.1815 58.1773 14.6775C57.7223 15.1585 57.4953 15.8675 57.4953 16.8035C57.4953 17.7265 57.7153 18.4355 58.1563 18.9305C58.3677 19.1698 58.6286 19.3602 58.9209 19.4887C59.2133 19.6172 59.531 19.6806 59.8503 19.6745ZM71.5103 10.8775C72.3223 10.8775 73.0313 11.0425 73.6373 11.3735C74.2573 11.7035 74.7313 12.1375 75.0623 12.6735V11.0435H78.5923V22.5435C78.5923 23.6035 78.3793 24.5605 77.9523 25.4135C77.5403 26.2815 76.9003 26.9695 76.0323 27.4795C75.1793 27.9895 74.1123 28.2435 72.8323 28.2435C71.1253 28.2435 69.7423 27.8375 68.6823 27.0255C67.6223 26.2265 67.0163 25.1395 66.8643 23.7625H70.3543C70.4643 24.2025 70.7263 24.5475 71.1393 24.7945C71.5523 25.0565 72.0613 25.1875 72.6673 25.1875C73.3973 25.1875 73.9743 24.9735 74.4013 24.5475C74.8413 24.1345 75.0613 23.4675 75.0613 22.5445V20.9125C74.7029 21.4639 74.2137 21.918 73.6373 22.2345C73.0313 22.5645 72.3223 22.7305 71.5103 22.7305C70.5603 22.7305 69.7003 22.4895 68.9303 22.0075C68.1583 21.5115 67.5463 20.8175 67.0913 19.9215C66.6513 19.0135 66.4313 17.9675 66.4313 16.7835C66.4313 15.5995 66.6513 14.5605 67.0913 13.6655C67.5463 12.7705 68.1583 12.0825 68.9293 11.6005C69.7028 11.1178 70.5985 10.8669 71.5103 10.8775ZM75.0623 16.8035C75.0623 15.9235 74.8143 15.2275 74.3193 14.7185C74.0944 14.4724 73.8197 14.2771 73.5135 14.1454C73.2073 14.0136 72.8766 13.9486 72.5433 13.9545C71.8413 13.9545 71.2423 14.2095 70.7463 14.7185C70.2643 15.2135 70.0243 15.9025 70.0243 16.7835C70.0243 17.6635 70.2643 18.3665 70.7463 18.8895C71.2423 19.3995 71.8413 19.6535 72.5433 19.6535C72.8764 19.6592 73.2069 19.5941 73.5129 19.4624C73.819 19.3306 74.0935 19.1354 74.3183 18.8895C74.8143 18.3795 75.0623 17.6845 75.0623 16.8035ZM85.7733 22.7305C84.6433 22.7305 83.6253 22.4895 82.7173 22.0075C81.8289 21.5319 81.0919 20.8164 80.5903 19.9425C80.0803 19.0475 79.8263 18.0015 79.8263 16.8035C79.8263 15.6205 80.0873 14.5805 80.6113 13.6855C81.1121 12.7989 81.8574 12.0751 82.7583 11.6005C83.6673 11.1185 84.6853 10.8775 85.8143 10.8775C86.9433 10.8775 87.9623 11.1185 88.8703 11.6005C89.7712 12.075 90.5165 12.7988 91.0173 13.6855C91.5413 14.5805 91.8023 15.6195 91.8023 16.8035C91.8023 17.9875 91.5343 19.0335 90.9973 19.9425C90.4876 20.8245 89.7351 21.5413 88.8293 22.0075C87.9203 22.4895 86.9023 22.7305 85.7733 22.7305ZM85.7733 19.6745C86.4473 19.6745 87.0193 19.4265 87.4873 18.9305C87.9683 18.4355 88.2093 17.7265 88.2093 16.8035C88.2093 15.8815 87.9753 15.1735 87.5073 14.6775C87.2958 14.4382 87.0349 14.2478 86.7426 14.1193C86.4503 13.9909 86.1335 13.9274 85.8143 13.9335C85.1263 13.9335 84.5543 14.1815 84.1003 14.6775C83.6463 15.1585 83.4193 15.8675 83.4193 16.8035C83.4193 17.7265 83.6393 18.4355 84.0793 18.9305C84.2908 19.1699 84.5519 19.3605 84.8444 19.4889C85.1369 19.6174 85.4539 19.6807 85.7733 19.6745ZM94.8323 9.84547C94.2123 9.84547 93.7033 9.66547 93.3043 9.30847C93.1178 9.13446 92.97 8.9232 92.8704 8.68839C92.7708 8.45359 92.7217 8.20047 92.7263 7.94547C92.7263 7.39547 92.9183 6.94047 93.3043 6.58247C93.7033 6.21047 94.2123 6.02547 94.8323 6.02547C95.4383 6.02547 95.9333 6.21047 96.3193 6.58247C96.7183 6.94047 96.9173 7.39447 96.9173 7.94547C96.9173 8.48247 96.7173 8.93647 96.3183 9.30847C95.9333 9.66647 95.4383 9.84547 94.8323 9.84547ZM96.5873 11.0425V22.5645H93.0563V11.0425H96.5873ZM102.057 12.6735C102.414 12.1257 102.904 11.6781 103.482 11.3735C104.088 11.0435 104.797 10.8775 105.609 10.8775C106.559 10.8775 107.419 11.1185 108.19 11.6005C108.961 12.0825 109.567 12.7705 110.007 13.6655C110.461 14.5595 110.689 15.5995 110.689 16.7835C110.689 17.9675 110.461 19.0135 110.007 19.9215C109.567 20.8165 108.961 21.5115 108.19 22.0075C107.417 22.4902 106.521 22.7411 105.609 22.7305C104.81 22.7305 104.102 22.5645 103.482 22.2345C102.876 21.9045 102.401 21.4775 102.057 20.9545V28.0575H98.5273V11.0425H102.057V12.6745V12.6735ZM107.096 16.7835C107.096 15.9025 106.848 15.2135 106.352 14.7185C105.87 14.2085 105.272 13.9545 104.556 13.9545C103.854 13.9545 103.255 14.2095 102.759 14.7185C102.278 15.2285 102.037 15.9225 102.037 16.8035C102.037 17.6845 102.278 18.3805 102.759 18.8895C103.255 19.3995 103.854 19.6535 104.556 19.6535C105.258 19.6535 105.857 19.3985 106.352 18.8895C106.848 18.3665 107.096 17.6645 107.096 16.7835ZM116.609 22.7305C115.604 22.7305 114.709 22.5575 113.924 22.2135C113.14 21.8695 112.52 21.4015 112.066 20.8095C111.62 20.2241 111.354 19.5209 111.302 18.7865H114.792C114.833 19.1855 115.019 19.5085 115.349 19.7565C115.68 20.0045 116.086 20.1285 116.568 20.1285C117.008 20.1285 117.345 20.0455 117.579 19.8805C117.827 19.7015 117.951 19.4745 117.951 19.1995C117.951 18.8695 117.779 18.6275 117.435 18.4765C117.091 18.3115 116.533 18.1325 115.762 17.9395C115.062 17.7835 114.372 17.5834 113.697 17.3405C113.149 17.1214 112.661 16.7744 112.273 16.3285C111.873 15.8605 111.674 15.2345 111.674 14.4495C111.674 13.7895 111.853 13.1895 112.211 12.6535C112.582 12.1035 113.119 11.6695 113.821 11.3525C114.537 11.0355 115.384 10.8775 116.361 10.8775C117.806 10.8775 118.942 11.2355 119.768 11.9515C120.608 12.6675 121.09 13.6165 121.214 14.8015H117.951C117.93 14.6151 117.872 14.4349 117.78 14.2716C117.688 14.1084 117.563 13.9654 117.414 13.8515C117.125 13.6165 116.74 13.5005 116.258 13.5005C115.845 13.5005 115.528 13.5825 115.308 13.7475C115.203 13.8167 115.117 13.9119 115.059 14.0241C115.001 14.1362 114.973 14.2614 114.978 14.3875C114.978 14.7175 115.15 14.9665 115.494 15.1315C115.852 15.2965 116.402 15.4615 117.146 15.6265C117.999 15.8465 118.694 16.0665 119.231 16.2875C119.781 16.5035 120.265 16.8596 120.635 17.3205C121.048 17.7885 121.262 18.4205 121.276 19.2205C121.276 19.8945 121.083 20.5005 120.697 21.0365C120.326 21.5605 119.782 21.9735 119.066 22.2765C118.364 22.5785 117.545 22.7305 116.609 22.7305ZM134.194 11.0425V22.5645H130.663V20.9955C130.305 21.5055 129.816 21.9175 129.197 22.2345C128.591 22.5375 127.917 22.6885 127.173 22.6885C126.292 22.6885 125.514 22.4965 124.84 22.1105C124.165 21.7105 123.642 21.1405 123.271 20.3965C122.899 19.6535 122.713 18.7795 122.713 17.7745V11.0425H126.223V17.2995C126.223 18.0695 126.423 18.6695 126.822 19.0955C127.221 19.5225 127.758 19.7355 128.433 19.7355C129.121 19.7355 129.665 19.5225 130.064 19.0955C130.463 18.6695 130.663 18.0705 130.663 17.2995V11.0425H134.194ZM150.813 10.9185C152.244 10.9185 153.38 11.3525 154.22 12.2195C155.073 13.0865 155.5 14.2915 155.5 15.8335V22.5645H151.99V16.3085C151.99 15.5645 151.79 14.9935 151.391 14.5945C151.005 14.1815 150.469 13.9745 149.78 13.9745C149.092 13.9745 148.548 14.1815 148.149 14.5945C147.764 14.9945 147.571 15.5645 147.571 16.3085V22.5645H144.06V16.3085C144.06 15.5645 143.861 14.9935 143.462 14.5945C143.076 14.1815 142.539 13.9745 141.851 13.9745C141.163 13.9745 140.619 14.1815 140.22 14.5945C139.834 14.9945 139.642 15.5645 139.642 16.3085V22.5645H136.111V11.0425H139.642V12.4885C140 12.0065 140.468 11.6285 141.046 11.3525C141.624 11.0625 142.278 10.9185 143.007 10.9185C143.875 10.9185 144.646 11.1045 145.32 11.4765C146 11.8397 146.559 12.3919 146.931 13.0665C147.34 12.4242 147.9 11.8922 148.562 11.5175C149.245 11.1196 150.023 10.9127 150.813 10.9185Z" fill="#2E0078"/>
</g>
</g>
<defs>
<clipPath id="clip0_2016_9">
<rect width="155" height="29" fill="white" transform="translate(0.5)"/>
</clipPath>
</defs>
</svg>
