<svg width="172" height="41" viewBox="0 0 172 41" fill="none" xmlns="http://www.w3.org/2000/svg">
<mask id="mask0_2016_22" style="mask-type:luminance" maskUnits="userSpaceOnUse" x="1" y="0" width="170" height="41">
<path d="M1 0H171V41H1V0Z" fill="white"/>
</mask>
<g mask="url(#mask0_2016_22)">
<path d="M52.8594 28.1444H64.8114V24.5444H57.1074V10.9844H52.8594V28.1444ZM71.8924 25.7444C70.1884 25.7444 69.3004 24.2564 69.3004 22.0244C69.3004 19.7924 70.1884 18.2804 71.8924 18.2804C73.5964 18.2804 74.5084 19.7924 74.5084 22.0244C74.5084 24.2564 73.5964 25.7444 71.8924 25.7444ZM71.9164 28.5284C75.8764 28.5284 78.4684 25.7204 78.4684 22.0244C78.4684 18.3284 75.8764 15.5204 71.9164 15.5204C67.9804 15.5204 65.3404 18.3284 65.3404 22.0244C65.3404 25.7204 67.9804 28.5284 71.9164 28.5284ZM85.3234 32.3924C87.1474 32.3924 88.7554 31.9844 89.8354 31.0244C90.8194 30.1364 91.4674 28.7924 91.4674 26.9444V15.8564H87.7234V17.1764H87.6754C86.9554 16.1444 85.8514 15.4964 84.2194 15.4964C81.1714 15.4964 79.0594 18.0404 79.0594 21.6404C79.0594 25.4084 81.6274 27.4724 84.3874 27.4724C85.8754 27.4724 86.8114 26.8724 87.5314 26.0564H87.6274V27.2804C87.6274 28.7684 86.9314 29.6324 85.2754 29.6324C83.9794 29.6324 83.3314 29.0804 83.1154 28.4324H79.3234C79.7074 31.0004 81.9394 32.3924 85.3234 32.3924ZM85.2994 24.5684C83.8354 24.5684 82.8754 23.3684 82.8754 21.5204C82.8754 19.6484 83.8354 18.4484 85.2994 18.4484C86.9314 18.4484 87.7954 19.8404 87.7954 21.4964C87.7954 23.2244 87.0034 24.5684 85.2994 24.5684ZM99.1654 25.7444C97.4614 25.7444 96.5734 24.2564 96.5734 22.0244C96.5734 19.7924 97.4614 18.2804 99.1654 18.2804C100.869 18.2804 101.781 19.7924 101.781 22.0244C101.781 24.2564 100.869 25.7444 99.1654 25.7444ZM99.1894 28.5284C103.149 28.5284 105.741 25.7204 105.741 22.0244C105.741 18.3284 103.149 15.5204 99.1894 15.5204C95.2534 15.5204 92.6134 18.3284 92.6134 22.0244C92.6134 25.7204 95.2534 28.5284 99.1894 28.5284ZM106.883 28.1444H110.795V15.8564H106.883V28.1444ZM106.883 14.1524H110.795V10.9844H106.883V14.1524ZM112.493 32.2004H116.405V26.8724H116.453C117.221 27.9044 118.349 28.5284 119.933 28.5284C123.149 28.5284 125.285 25.9844 125.285 22.0004C125.285 18.3044 123.293 15.4964 120.029 15.4964C118.349 15.4964 117.149 16.2404 116.309 17.3444H116.237V15.8564H112.493V32.2004ZM118.925 25.5044C117.245 25.5044 116.285 24.1364 116.285 22.1444C116.285 20.1524 117.149 18.6404 118.853 18.6404C120.533 18.6404 121.325 20.0324 121.325 22.1444C121.325 24.2324 120.413 25.5044 118.925 25.5044ZM131.654 28.5284C134.87 28.5284 137.246 27.1364 137.246 24.4484C137.246 21.3044 134.702 20.7524 132.542 20.3924C130.982 20.1044 129.59 19.9844 129.59 19.1204C129.59 18.3524 130.334 17.9924 131.294 17.9924C132.374 17.9924 133.118 18.3284 133.262 19.4324H136.862C136.67 17.0084 134.798 15.4964 131.318 15.4964C128.414 15.4964 126.014 16.8404 126.014 19.4324C126.014 22.3124 128.294 22.8884 130.43 23.2484C132.062 23.5364 133.55 23.6564 133.55 24.7604C133.55 25.5524 132.806 25.9844 131.63 25.9844C130.334 25.9844 129.518 25.3844 129.374 24.1604H125.678C125.798 26.8724 128.054 28.5284 131.654 28.5284ZM142.56 28.5044C144.264 28.5044 145.344 27.8324 146.232 26.6324H146.304V28.1444H150.048V15.8564H146.136V22.7204C146.136 24.1844 145.32 25.1924 143.976 25.1924C142.728 25.1924 142.128 24.4484 142.128 23.1044V15.8564H138.24V23.9204C138.24 26.6564 139.728 28.5044 142.56 28.5044ZM151.749 28.1444H155.661V21.2564C155.661 19.7924 156.381 18.7604 157.605 18.7604C158.781 18.7604 159.333 19.5284 159.333 20.8484V28.1444H163.245V21.2564C163.245 19.7924 163.941 18.7604 165.189 18.7604C166.365 18.7604 166.917 19.5284 166.917 20.8484V28.1444H170.829V20.1524C170.829 17.3924 169.437 15.4964 166.653 15.4964C165.069 15.4964 163.749 16.1684 162.789 17.6564H162.741C162.117 16.3364 160.893 15.4964 159.285 15.4964C157.509 15.4964 156.333 16.3364 155.565 17.6084H155.493V15.8564H151.749V28.1444Z" fill="#2E0078"/>
<path fill-rule="evenodd" clip-rule="evenodd" d="M21.6836 40.1406C32.7296 40.1406 41.6836 31.1866 41.6836 20.1406C41.6836 9.09463 32.7296 0.140625 21.6836 0.140625C10.6376 0.140625 1.68359 9.09463 1.68359 20.1406C1.68359 31.1866 10.6376 40.1406 21.6836 40.1406ZM27.9236 9.45763C28.2266 8.37863 27.1796 7.74063 26.2236 8.42163L12.8766 17.9306C11.8396 18.6686 12.0026 20.1406 13.1216 20.1406H16.6366V20.1136H23.4866L17.9046 22.0836L15.4446 30.8236C15.1406 31.9026 16.1876 32.5406 17.1446 31.8596L30.4906 22.3516C31.5276 21.6116 31.3646 20.1406 30.2456 20.1406H24.9156L27.9236 9.45763Z" fill="#2E0078"/>
</g>
</svg>
