<svg width="170" height="41" viewBox="0 0 170 41" fill="none" xmlns="http://www.w3.org/2000/svg">
<mask id="mask0_2016_15" style="mask-type:luminance" maskUnits="userSpaceOnUse" x="1" y="0" width="168" height="41">
<path d="M1 0H169V41H1V0Z" fill="white"/>
</mask>
<g mask="url(#mask0_2016_15)">
<path d="M50.2774 28.9509H62.2294V25.3509H54.5254V11.7909H50.2774V28.9509ZM69.3094 26.5509C67.6064 26.5509 66.7184 25.0629 66.7184 22.8309C66.7184 20.5989 67.6064 19.0869 69.3104 19.0869C71.0144 19.0869 71.9264 20.5989 71.9264 22.8309C71.9264 25.0629 71.0134 26.5509 69.3094 26.5509ZM69.3344 29.3349C73.2944 29.3349 75.8864 26.5269 75.8864 22.8309C75.8864 19.1349 73.2944 16.3269 69.3344 16.3269C65.3984 16.3269 62.7584 19.1349 62.7584 22.8309C62.7584 26.5269 65.3984 29.3349 69.3344 29.3349ZM82.7404 33.1989C84.5644 33.1989 86.1724 32.7909 87.2524 31.8309C88.2364 30.9429 88.8844 29.5989 88.8844 27.7509V16.6629H85.1404V17.9829H85.0924C84.3724 16.9509 83.2684 16.3029 81.6364 16.3029C78.5884 16.3029 76.4764 18.8469 76.4764 22.4469C76.4764 26.2149 79.0444 28.2789 81.8044 28.2789C83.2924 28.2789 84.2284 27.6789 84.9484 26.8629H85.0444V28.0869C85.0444 29.5749 84.3484 30.4389 82.6924 30.4389C81.3964 30.4389 80.7484 29.8869 80.5324 29.2389H76.7404C77.1244 31.8069 79.3564 33.1989 82.7404 33.1989ZM82.7164 25.3749C81.2524 25.3749 80.2924 24.1749 80.2924 22.3269C80.2924 20.4549 81.2524 19.2549 82.7164 19.2549C84.3484 19.2549 85.2124 20.6469 85.2124 22.3029C85.2124 24.0309 84.4204 25.3749 82.7164 25.3749ZM96.5834 26.5509C94.8784 26.5509 93.9904 25.0629 93.9904 22.8309C93.9904 20.5989 94.8784 19.0869 96.5834 19.0869C98.2864 19.0869 99.1984 20.5989 99.1984 22.8309C99.1984 25.0629 98.2864 26.5509 96.5834 26.5509ZM96.6064 29.3349C100.566 29.3349 103.158 26.5269 103.158 22.8309C103.158 19.1349 100.566 16.3269 96.6064 16.3269C92.6704 16.3269 90.0304 19.1349 90.0304 22.8309C90.0304 26.5269 92.6704 29.3349 96.6064 29.3349ZM104.301 28.9509H108.213V16.6629H104.301V28.9509ZM104.301 14.9589H108.213V11.7909H104.301V14.9589ZM109.91 33.0069H113.822V27.6789H113.87C114.638 28.7109 115.766 29.3349 117.35 29.3349C120.566 29.3349 122.702 26.7909 122.702 22.8069C122.702 19.1109 120.71 16.3029 117.446 16.3029C115.766 16.3029 114.566 17.0469 113.726 18.1509H113.654V16.6629H109.91V33.0069ZM116.342 26.3109C114.662 26.3109 113.702 24.9429 113.702 22.9509C113.702 20.9589 114.566 19.4469 116.27 19.4469C117.95 19.4469 118.742 20.8389 118.742 22.9509C118.742 25.0389 117.83 26.3109 116.342 26.3109ZM129.071 29.3349C132.287 29.3349 134.663 27.9429 134.663 25.2549C134.663 22.1109 132.119 21.5589 129.959 21.1989C128.399 20.9109 127.007 20.7909 127.007 19.9269C127.007 19.1589 127.751 18.7989 128.711 18.7989C129.791 18.7989 130.535 19.1349 130.679 20.2389H134.279C134.087 17.8149 132.215 16.3029 128.735 16.3029C125.831 16.3029 123.431 17.6469 123.431 20.2389C123.431 23.1189 125.711 23.6949 127.847 24.0549C129.479 24.3429 130.967 24.4629 130.967 25.5669C130.967 26.3589 130.223 26.7909 129.047 26.7909C127.751 26.7909 126.935 26.1909 126.791 24.9669H123.095C123.215 27.6789 125.471 29.3349 129.071 29.3349ZM139.977 29.3109C141.681 29.3109 142.761 28.6389 143.649 27.4389H143.721V28.9509H147.465V16.6629H143.553V23.5269C143.553 24.9909 142.737 25.9989 141.393 25.9989C140.145 25.9989 139.545 25.2549 139.545 23.9109V16.6629H135.657V24.7269C135.657 27.4629 137.145 29.3109 139.977 29.3109ZM149.167 28.9509H153.079V22.0629C153.079 20.5989 153.799 19.5669 155.023 19.5669C156.199 19.5669 156.751 20.3349 156.751 21.6549V28.9509H160.663V22.0629C160.663 20.5989 161.359 19.5669 162.607 19.5669C163.783 19.5669 164.335 20.3349 164.335 21.6549V28.9509H168.247V20.9589C168.247 18.1989 166.855 16.3029 164.071 16.3029C162.487 16.3029 161.167 16.9749 160.207 18.4629H160.159C159.535 17.1429 158.311 16.3029 156.703 16.3029C154.927 16.3029 153.751 17.1429 152.983 18.4149H152.911V16.6629H149.167V28.9509ZM26.4094 1.97588L22.4764 0.921875L19.1624 13.2919L16.1694 2.12388L12.2364 3.17887L15.4694 15.2449L7.41641 7.19187L4.53741 10.0719L13.3704 18.9039L2.37041 15.9569L1.31641 19.8889L13.3354 23.1089C13.0584 21.9151 13.0544 20.6742 13.3236 19.4787C13.5929 18.2832 14.1285 17.1638 14.8905 16.204C15.6525 15.2443 16.6213 14.4689 17.7247 13.9356C18.828 13.4023 20.0375 13.1249 21.263 13.1241C22.4885 13.1232 23.6983 13.3989 24.8024 13.9307C25.9065 14.4624 26.8764 15.2365 27.6397 16.1952C28.4031 17.1539 28.9402 18.2725 29.2111 19.4677C29.4821 20.6628 29.4798 21.9037 29.2044 23.0979L40.1274 26.0239L41.1804 22.0909L29.1144 18.8579L40.1144 15.9099L39.0614 11.9769L26.9954 15.2099L35.0474 7.15788L32.1684 4.27787L23.4584 12.9879L26.4094 1.97588Z" fill="#2E0078"/>
<path d="M29.1938 23.1428C28.8613 24.5447 28.1621 25.8331 27.1678 26.8758L35.0808 34.7888L37.9608 31.9088L29.1938 23.1428ZM27.0878 26.9588C26.0855 27.9839 24.8301 28.7259 23.4488 29.1098L26.3288 39.8558L30.2618 38.8018L27.0878 26.9588ZM23.3028 29.1488C22.6383 29.3193 21.9549 29.4054 21.2688 29.4048C20.5349 29.4054 19.8043 29.3068 19.0968 29.1118L16.2148 39.8688L20.1478 40.9228L23.3028 29.1488ZM18.9578 29.0728C17.596 28.6691 16.3636 27.9162 15.3828 26.8888L7.45081 34.8218L10.3298 37.7018L18.9578 29.0728ZM15.3168 26.8188C14.3482 25.7835 13.6673 24.5128 13.3418 23.1328L2.38281 26.0688L3.43681 30.0018L15.3168 26.8188Z" fill="#2E0078"/>
</g>
</svg>
