<svg width="169" height="41" viewBox="0 0 169 41" fill="none" xmlns="http://www.w3.org/2000/svg">
<mask id="mask0_2016_2" style="mask-type:luminance" maskUnits="userSpaceOnUse" x="1" y="0" width="167" height="41">
<path d="M1 0H168V41H1V0Z" fill="white"/>
</mask>
<g mask="url(#mask0_2016_2)">
<path d="M49.6309 28.8006H61.5839V25.2006H53.8799V11.6406H49.6309V28.8006ZM68.6649 26.4006C66.9609 26.4006 66.0729 24.9126 66.0729 22.6806C66.0729 20.4486 66.9609 18.9366 68.6649 18.9366C70.3689 18.9366 71.2809 20.4486 71.2809 22.6806C71.2809 24.9126 70.3689 26.4006 68.6649 26.4006ZM68.6889 29.1846C72.6489 29.1846 75.2409 26.3766 75.2409 22.6806C75.2409 18.9846 72.6489 16.1766 68.6889 16.1766C64.7529 16.1766 62.1129 18.9846 62.1129 22.6806C62.1129 26.3766 64.7529 29.1846 68.6889 29.1846ZM82.0949 33.0486C83.9189 33.0486 85.5269 32.6406 86.6069 31.6806C87.5909 30.7926 88.2389 29.4486 88.2389 27.6006V16.5126H84.4949V17.8326H84.4469C83.7269 16.8006 82.6229 16.1526 80.9909 16.1526C77.9429 16.1526 75.8309 18.6966 75.8309 22.2966C75.8309 26.0646 78.3989 28.1286 81.1589 28.1286C82.6469 28.1286 83.5829 27.5286 84.3029 26.7126H84.3989V27.9366C84.3989 29.4246 83.7029 30.2886 82.0469 30.2886C80.7509 30.2886 80.1029 29.7366 79.8869 29.0886H76.0949C76.4789 31.6566 78.7109 33.0486 82.0949 33.0486ZM82.0709 25.2246C80.6069 25.2246 79.6469 24.0246 79.6469 22.1766C79.6469 20.3046 80.6069 19.1046 82.0709 19.1046C83.7029 19.1046 84.5669 20.4966 84.5669 22.1526C84.5669 23.8806 83.7749 25.2246 82.0709 25.2246ZM95.9379 26.4006C94.2339 26.4006 93.3459 24.9126 93.3459 22.6806C93.3459 20.4486 94.2339 18.9366 95.9379 18.9366C97.6419 18.9366 98.5539 20.4486 98.5539 22.6806C98.5539 24.9126 97.6419 26.4006 95.9379 26.4006ZM95.9619 29.1846C99.9219 29.1846 102.514 26.3766 102.514 22.6806C102.514 18.9846 99.9219 16.1766 95.9619 16.1766C92.0259 16.1766 89.3859 18.9846 89.3859 22.6806C89.3859 26.3766 92.0259 29.1846 95.9619 29.1846ZM103.656 28.8006H107.568V16.5126H103.656V28.8006ZM103.656 14.8086H107.568V11.6406H103.656V14.8086ZM109.265 32.8566H113.177V27.5286H113.225C113.993 28.5606 115.121 29.1846 116.705 29.1846C119.921 29.1846 122.057 26.6406 122.057 22.6566C122.057 18.9606 120.065 16.1526 116.801 16.1526C115.121 16.1526 113.921 16.8966 113.081 18.0006H113.009V16.5126H109.265V32.8566ZM115.697 26.1606C114.017 26.1606 113.057 24.7926 113.057 22.8006C113.057 20.8086 113.921 19.2966 115.625 19.2966C117.305 19.2966 118.097 20.6886 118.097 22.8006C118.097 24.8886 117.185 26.1606 115.697 26.1606ZM128.427 29.1846C131.643 29.1846 134.019 27.7926 134.019 25.1046C134.019 21.9606 131.475 21.4086 129.315 21.0486C127.755 20.7606 126.363 20.6406 126.363 19.7766C126.363 19.0086 127.107 18.6486 128.067 18.6486C129.147 18.6486 129.891 18.9846 130.035 20.0886H133.635C133.443 17.6646 131.571 16.1526 128.091 16.1526C125.187 16.1526 122.787 17.4966 122.787 20.0886C122.787 22.9686 125.067 23.5446 127.203 23.9046C128.835 24.1926 130.323 24.3126 130.323 25.4166C130.323 26.2086 129.579 26.6406 128.403 26.6406C127.107 26.6406 126.291 26.0406 126.147 24.8166H122.451C122.571 27.5286 124.827 29.1846 128.427 29.1846ZM139.332 29.1606C141.036 29.1606 142.116 28.4886 143.004 27.2886H143.076V28.8006H146.82V16.5126H142.908V23.3766C142.908 24.8406 142.092 25.8486 140.748 25.8486C139.5 25.8486 138.9 25.1046 138.9 23.7606V16.5126H135.012V24.5766C135.012 27.3126 136.5 29.1606 139.332 29.1606ZM148.522 28.8006H152.434V21.9126C152.434 20.4486 153.154 19.4166 154.378 19.4166C155.554 19.4166 156.106 20.1846 156.106 21.5046V28.8006H160.018V21.9126C160.018 20.4486 160.714 19.4166 161.962 19.4166C163.138 19.4166 163.69 20.1846 163.69 21.5046V28.8006H167.602V20.8086C167.602 18.0486 166.21 16.1526 163.426 16.1526C161.842 16.1526 160.522 16.8246 159.562 18.3126H159.514C158.89 16.9926 157.666 16.1526 156.058 16.1526C154.282 16.1526 153.106 16.9926 152.338 18.2646H152.266V16.5126H148.522V28.8006Z" fill="#2E0078"/>
<path fill-rule="evenodd" clip-rule="evenodd" d="M9.65456 3.89489C8.22456 4.89489 6.93056 6.07889 5.80756 7.40989C10.3976 6.98389 16.2276 7.67989 22.9966 11.0639C30.2246 14.6779 36.0466 14.8009 40.0966 14.0189C39.7317 12.9143 39.2706 11.8439 38.7186 10.8199C34.0806 11.3099 28.1356 10.6619 21.2076 7.19789C16.8076 4.99789 12.9296 4.09189 9.65456 3.89489ZM36.0096 6.96489C34.1355 4.86455 31.8382 3.18456 29.2687 2.03532C26.6991 0.886092 23.9154 0.293635 21.1006 0.296888C19.3606 0.296888 17.6736 0.518888 16.0646 0.936888C18.2446 1.53089 20.5586 2.40089 22.9946 3.61889C28.0676 6.15489 32.4476 6.97189 36.0086 6.96289L36.0096 6.96489ZM40.9626 17.9249C36.0686 18.8919 29.3106 18.6939 21.2076 14.6419C13.6316 10.8539 7.60256 10.9019 3.53556 11.8059C3.32556 11.8519 3.12056 11.9009 2.92056 11.9519C2.38287 13.1214 1.96021 14.3405 1.65856 15.5919C1.98456 15.5049 2.32056 15.4219 2.66856 15.3449C7.60156 14.2489 14.5726 14.2969 22.9966 18.5089C30.5726 22.2969 36.6016 22.2489 40.6686 21.3449C40.806 21.3148 40.943 21.2828 41.0796 21.2489C41.1315 20.1399 41.0924 19.0285 40.9626 17.9259V17.9249ZM40.4266 25.4699C35.5806 26.3169 29.0186 25.9919 21.2076 22.0859C13.6316 18.2989 7.60256 18.3459 3.53556 19.2499C2.63356 19.4499 1.82156 19.6949 1.10556 19.9529C1.10256 20.0669 1.10156 20.1829 1.10156 20.2979C1.10156 31.3429 10.0566 40.2979 21.1016 40.2979C30.3596 40.2979 38.1476 34.0079 40.4266 25.4699Z" fill="#2E0078"/>
</g>
</svg>
