<svg width="155" height="38" viewBox="0 0 155 38" fill="none" xmlns="http://www.w3.org/2000/svg">
<mask id="mask0_2016_29" style="mask-type:luminance" maskUnits="userSpaceOnUse" x="1" y="0" width="153" height="38">
<path d="M1 0H154V38H1V0Z" fill="white"/>
</mask>
<g mask="url(#mask0_2016_29)">
<path d="M25.6104 19.032C26.2504 18.4975 26.7651 17.8288 27.118 17.0733C27.4708 16.3177 27.6533 15.4939 27.6524 14.66C27.6532 13.8261 27.4706 13.0021 27.1175 12.2466C26.7645 11.4911 26.2496 10.8224 25.6094 10.288C25.7524 10.218 25.8894 10.144 26.0214 10.062C26.8407 9.55401 27.7809 9.27419 28.7447 9.2515C29.7085 9.22881 30.6609 9.46406 31.5032 9.93293C32.3456 10.4018 33.0473 11.0872 33.5359 11.9183C34.0245 12.7494 34.2821 13.6959 34.2821 14.66C34.2821 15.6241 34.0245 16.5706 33.5359 17.4017C33.0473 18.2328 32.3456 18.9182 31.5032 19.3871C30.6609 19.8559 29.7085 20.0912 28.7447 20.0685C27.7809 20.0458 26.8407 19.766 26.0214 19.258C25.8881 19.1755 25.7506 19.1001 25.6094 19.032H25.6104Z" fill="#2E0078"/>
<path d="M24.1074 15.507C24.3945 14.724 24.5058 13.8874 24.4336 13.0565C24.3614 12.2256 24.1073 11.4208 23.6894 10.699C23.2731 9.9764 22.7031 9.35413 22.0196 8.87631C21.3362 8.39849 20.556 8.0768 19.7344 7.93402C19.8244 7.80302 19.9054 7.66902 19.9784 7.53302C20.434 6.68342 21.1083 5.97099 21.9316 5.46945C22.7549 4.96791 23.6973 4.69548 24.6613 4.68035C25.6252 4.66523 26.5757 4.90795 27.4143 5.38342C28.253 5.85888 28.9493 6.5498 29.4313 7.3847C29.9134 8.21959 30.1635 9.16812 30.156 10.1321C30.1484 11.0962 29.8834 12.0407 29.3883 12.8679C28.8932 13.6951 28.1861 14.375 27.3401 14.8373C26.4941 15.2995 25.54 15.5273 24.5764 15.497C24.4196 15.4921 24.2638 15.4954 24.1074 15.507Z" fill="#2E0078"/>
<path d="M21.0457 13.2108C20.9029 12.3892 20.5812 11.609 20.1034 10.9256C19.6255 10.2421 19.0033 9.67206 18.2807 9.25583C17.5588 8.83808 16.754 8.58419 15.9231 8.51213C15.0922 8.44006 14.2556 8.5516 13.4727 8.83883C13.4847 8.68083 13.4877 8.52383 13.4827 8.36883C13.4524 7.40525 13.6802 6.45109 14.1424 5.60509C14.6047 4.75908 15.2846 4.05196 16.1118 3.55689C16.939 3.06182 17.8835 2.79679 18.8475 2.78923C19.8116 2.78166 20.7601 3.03184 21.595 3.51386C22.4299 3.99588 23.1208 4.69225 23.5963 5.5309C24.0717 6.36954 24.3145 7.32001 24.2993 8.28394C24.2842 9.24787 24.0118 10.1903 23.5102 11.0136C23.0087 11.8369 22.2963 12.5112 21.4467 12.9668C21.3107 13.0408 21.1767 13.1218 21.0457 13.2108Z" fill="#2E0078"/>
<path d="M17.2449 12.7498C16.7105 12.1096 16.0418 11.5947 15.2863 11.2417C14.5308 10.8886 13.7068 10.706 12.8729 10.7068C12.0389 10.7062 11.2149 10.8889 10.4594 11.2421C9.70382 11.5954 9.03521 12.1104 8.50089 12.7508C8.43283 12.6096 8.3574 12.4721 8.27489 12.3388C7.7669 11.5195 7.48708 10.5793 7.46439 9.61547C7.4417 8.65168 7.67696 7.69934 8.14582 6.85698C8.61469 6.01463 9.30012 5.31286 10.1312 4.8243C10.9623 4.33573 11.9088 4.07812 12.8729 4.07812C13.8369 4.07812 14.7835 4.33573 15.6146 4.8243C16.4457 5.31286 17.1311 6.01463 17.6 6.85698C18.0688 7.69934 18.3041 8.65168 18.2814 9.61547C18.2587 10.5793 17.9789 11.5195 17.4709 12.3388C17.3883 12.4721 17.3129 12.6096 17.2449 12.7508V12.7498Z" fill="#2E0078"/>
<path d="M13.7238 14.2529C12.9408 13.9657 12.1043 13.8541 11.2734 13.9262C10.4425 13.9983 9.63766 14.2521 8.91582 14.6699C8.19319 15.0861 7.57093 15.6562 7.09311 16.3396C6.61529 17.0231 6.2936 17.8033 6.15082 18.6249C6.02153 18.5366 5.88768 18.4551 5.74982 18.3809C4.90021 17.9253 4.18778 17.251 3.68624 16.4276C3.1847 15.6043 2.91228 14.6619 2.89715 13.698C2.88203 12.7341 3.12475 11.7836 3.60021 10.945C4.07567 10.1063 4.7666 9.40995 5.60149 8.92792C6.43639 8.4459 7.38492 8.19573 8.34894 8.20329C9.31296 8.21086 10.2574 8.47589 11.0847 8.97095C11.9119 9.46602 12.5918 10.1731 13.0541 11.0191C13.5163 11.8652 13.7441 12.8193 13.7138 13.7829C13.7088 13.9369 13.7118 14.0939 13.7238 14.2529Z" fill="#2E0078"/>
<path d="M11.4257 17.3178C10.6041 17.4606 9.82388 17.7823 9.14041 18.2601C8.45694 18.7379 7.8869 19.3602 7.47067 20.0828C7.05308 20.8045 6.79927 21.6092 6.7272 22.4399C6.65514 23.2706 6.7666 24.107 7.05367 24.8898C6.89729 24.8782 6.7404 24.8749 6.58367 24.8798C5.62009 24.9101 4.66594 24.6823 3.81993 24.2201C2.97392 23.7578 2.2668 23.0779 1.77173 22.2507C1.27667 21.4235 1.01164 20.479 1.00407 19.515C0.996508 18.5509 1.24668 17.6024 1.7287 16.7675C2.21073 15.9326 2.90709 15.2417 3.74574 14.7662C4.58439 14.2908 5.53485 14.048 6.49879 14.0632C7.46272 14.0783 8.4051 14.3507 9.22842 14.8523C10.0517 15.3538 10.7261 16.0662 11.1817 16.9158C11.2547 17.0518 11.3357 17.1858 11.4257 17.3178Z" fill="#2E0078"/>
<path d="M10.9657 21.1161C10.3255 21.6505 9.81059 22.3192 9.45753 23.0747C9.10448 23.8303 8.92188 24.6542 8.92267 25.4881C8.92267 27.2441 9.71667 28.8151 10.9657 29.8601C10.8227 29.9301 10.6857 30.0051 10.5537 30.0861C9.73431 30.5941 8.7941 30.8739 7.83031 30.8966C6.86653 30.9193 5.91418 30.6841 5.07183 30.2152C4.22947 29.7463 3.5277 29.0609 3.03914 28.2298C2.55058 27.3987 2.29297 26.4522 2.29297 25.4881C2.29297 24.5241 2.55058 23.5775 3.03914 22.7464C3.5277 21.9154 4.22947 21.2299 5.07183 20.7611C5.91418 20.2922 6.86653 20.0569 7.83031 20.0796C8.7941 20.1023 9.73431 20.3821 10.5537 20.8901C10.6847 20.9721 10.8227 21.0461 10.9657 21.1161Z" fill="#2E0078"/>
<path d="M12.4667 24.6406C12.1796 25.4234 12.0681 26.2598 12.1402 27.0905C12.2122 27.9212 12.4661 28.7259 12.8837 29.4476C13.3 30.1703 13.87 30.7925 14.5535 31.2703C15.2369 31.7482 16.0171 32.0699 16.8387 32.2126C16.7497 32.3446 16.6687 32.4786 16.5957 32.6146C16.1401 33.4642 15.4658 34.1767 14.6425 34.6782C13.8192 35.1797 12.8768 35.4522 11.9128 35.4673C10.9489 35.4824 9.99845 35.2397 9.1598 34.7642C8.32115 34.2888 7.62479 33.5978 7.14277 32.763C6.66074 31.9281 6.41057 30.9795 6.41814 30.0155C6.4257 29.0515 6.69073 28.107 7.1858 27.2798C7.68086 26.4525 8.38799 25.7726 9.23399 25.3104C10.08 24.8482 11.0342 24.6204 11.9977 24.6506C12.1517 24.6556 12.3077 24.6516 12.4677 24.6406H12.4667Z" fill="#2E0078"/>
<path d="M15.5307 26.9375C15.6734 27.759 15.9949 28.5391 16.4726 29.2226C16.9502 29.9061 17.5723 30.4762 18.2947 30.8925C19.0166 31.3102 19.8214 31.5641 20.6523 31.6362C21.4832 31.7083 22.3197 31.5967 23.1027 31.3095C23.0911 31.4659 23.0878 31.6228 23.0927 31.7795C23.123 32.7431 22.8952 33.6972 22.433 34.5432C21.9707 35.3892 21.2908 36.0964 20.4636 36.5914C19.6364 37.0865 18.6919 37.3515 17.7278 37.3591C16.7638 37.3667 15.8153 37.1165 14.9804 36.6345C14.1455 36.1524 13.4546 35.4561 12.9791 34.6174C12.5037 33.7788 12.2609 32.8283 12.2761 31.8644C12.2912 30.9005 12.5636 29.9581 13.0651 29.1348C13.5667 28.3114 14.2791 27.6371 15.1287 27.1815C15.2647 27.1085 15.3997 27.0265 15.5307 26.9375Z" fill="#2E0078"/>
<path d="M19.331 27.3984C19.8655 28.0385 20.5342 28.5532 21.2897 28.906C22.0452 29.2589 22.8691 29.4414 23.703 29.4404C24.5368 29.4414 25.3607 29.2589 26.1162 28.906C26.8718 28.5532 27.5405 28.0385 28.075 27.3984C28.145 27.5414 28.22 27.6784 28.301 27.8104C28.809 28.6298 29.0888 29.57 29.1115 30.5338C29.1342 31.4976 28.8989 32.4499 28.43 33.2923C27.9612 34.1346 27.2757 34.8364 26.4446 35.325C25.6136 35.8135 24.667 36.0711 23.703 36.0711C22.7389 36.0711 21.7924 35.8135 20.9613 35.325C20.1302 34.8364 19.4448 34.1346 18.9759 33.2923C18.507 32.4499 18.2718 31.4976 18.2945 30.5338C18.3172 29.57 18.597 28.6298 19.105 27.8104C19.187 27.6784 19.262 27.5404 19.331 27.3984Z" fill="#2E0078"/>
<path d="M22.8516 25.8954C23.6345 26.1827 24.4711 26.2943 25.302 26.2222C26.1329 26.1502 26.9378 25.8962 27.6596 25.4784C28.3822 25.0622 29.0045 24.4922 29.4823 23.8087C29.9601 23.1252 30.2818 22.3451 30.4246 21.5234C30.5556 21.6134 30.6896 21.6944 30.8266 21.7674C31.6762 22.223 32.3886 22.8974 32.8901 23.7207C33.3917 24.544 33.6641 25.4864 33.6792 26.4503C33.6944 27.4143 33.4516 28.3647 32.9762 29.2034C32.5007 30.042 31.8098 30.7384 30.9749 31.2204C30.14 31.7024 29.1915 31.9526 28.2274 31.945C27.2634 31.9375 26.3189 31.6724 25.4917 31.1774C24.6645 30.6823 23.9846 29.9752 23.5223 29.1292C23.0601 28.2832 22.8323 27.329 22.8626 26.3654C22.8675 26.2087 22.8632 26.0518 22.8516 25.8954Z" fill="#2E0078"/>
<path d="M29.1084 20.0649L29.1054 20.0699C28.6892 20.7925 28.1191 21.4148 27.4356 21.8926C26.7522 22.3704 25.972 22.6921 25.1504 22.8349C25.2394 22.9669 25.3204 23.1009 25.3944 23.2369C25.7656 23.9269 26.2823 24.5281 26.9087 24.9989C27.5351 25.4696 28.2563 25.7986 29.0224 25.9632C29.7885 26.1278 30.5812 26.124 31.3457 25.9521C32.1102 25.7802 32.8282 25.4443 33.4501 24.9676C34.0719 24.4909 34.5829 23.8848 34.9475 23.1912C35.3121 22.4976 35.5216 21.7331 35.5617 20.9506C35.6018 20.168 35.4714 19.3861 35.1795 18.6589C34.8877 17.9317 34.4413 17.2766 33.8714 16.7389C33.4757 17.6886 32.8174 18.5059 31.9739 19.095C31.1303 19.684 30.1363 20.0205 29.1084 20.0649ZM48.2604 9.84687V26.0059H44.6804V9.84687H48.2604ZM45.2484 26.0059L45.3144 22.8399H54.5944V26.0059H45.2484ZM55.1554 20.5249C55.1554 19.3749 55.3954 18.3709 55.8754 17.5119C56.3413 16.6527 57.0464 15.9472 57.9054 15.4809C58.7794 15.0009 59.7984 14.7609 60.9634 14.7609C62.1284 14.7609 63.1394 15.0009 63.9984 15.4809C64.8576 15.9467 65.5631 16.6519 66.0294 17.5109C66.5094 18.3709 66.7494 19.3749 66.7494 20.5249C66.7494 21.6749 66.5094 22.6799 66.0294 23.5389C65.5583 24.3882 64.8538 25.085 63.9994 25.5469C63.1394 26.0269 62.1284 26.2679 60.9634 26.2679C59.7984 26.2679 58.7794 26.0279 57.9064 25.5479C57.0517 25.0855 56.3472 24.388 55.8764 23.5379C55.3954 22.6799 55.1554 21.6749 55.1554 20.5249ZM58.5394 20.5029C58.5394 21.0559 58.6414 21.5439 58.8454 21.9659C59.0494 22.3739 59.3324 22.6939 59.6964 22.9269C60.0806 23.1505 60.519 23.264 60.9634 23.2549C61.4434 23.2549 61.8654 23.1449 62.2294 22.9269C62.5934 22.6939 62.8704 22.3739 63.0594 21.9669C63.2634 21.5439 63.3654 21.0569 63.3654 20.5029C63.3654 19.9499 63.2634 19.4699 63.0594 19.0619C62.8852 18.6714 62.5956 18.3437 62.2294 18.1229C61.8504 17.8855 61.4105 17.7639 60.9634 17.7729C60.516 17.7638 60.0757 17.8854 59.6964 18.1229C59.3277 18.3468 59.032 18.673 58.8454 19.0619C58.6414 19.4699 58.5394 19.9499 58.5394 20.5029ZM67.5094 20.3499C67.5094 19.2299 67.7354 18.2469 68.1864 17.4019C68.6101 16.5869 69.2529 15.9063 70.0424 15.4369C70.8284 14.9569 71.7314 14.7169 72.7504 14.7169C73.6094 14.7169 74.3664 14.8909 75.0204 15.2409C75.6904 15.5899 76.1424 16.0489 76.3754 16.6159L76.0474 16.8349L76.3094 15.0879H79.3444V25.3079C79.3444 26.5879 79.0974 27.6949 78.6024 28.6259C78.1301 29.5489 77.3925 30.3095 76.4844 30.8099C75.5814 31.3199 74.5044 31.5739 73.2524 31.5739C72.2044 31.5739 71.2584 31.3639 70.4134 30.9409C69.5968 30.5442 68.8973 29.9422 68.3834 29.1939C67.8734 28.4369 67.5674 27.5639 67.4654 26.5739H70.8724C70.9014 27.1999 71.1484 27.6799 71.6144 28.0149C72.0944 28.3499 72.7064 28.5169 73.4494 28.5169C74.2794 28.5169 74.9194 28.2839 75.3704 27.8179C75.8214 27.3679 76.0474 26.7629 76.0474 26.0059V23.6909L76.3534 23.9749C76.1204 24.5429 75.6694 25.0009 74.9994 25.3509C74.3294 25.7009 73.5584 25.8749 72.6844 25.8749C71.6804 25.8749 70.7844 25.6419 69.9984 25.1759C69.2228 24.7057 68.589 24.0343 68.1644 23.2329C67.7274 22.4029 67.5094 21.4429 67.5094 20.3499ZM70.9154 20.2629C70.9154 20.7869 71.0254 21.2529 71.2434 21.6599C71.4614 22.0679 71.7534 22.3879 72.1164 22.6209C72.479 22.8392 72.8951 22.9527 73.3184 22.9489C73.8424 22.9489 74.3004 22.8389 74.6934 22.6209C75.1014 22.3879 75.4134 22.0679 75.6334 21.6609C75.8654 21.2529 75.9824 20.7869 75.9824 20.2629C75.9824 19.7239 75.8654 19.2659 75.6324 18.8869C75.4038 18.4979 75.0714 18.1804 74.6724 17.9699C74.2784 17.7519 73.8204 17.6429 73.2964 17.6429C72.8594 17.6429 72.4594 17.7519 72.0954 17.9699C71.7274 18.1921 71.4257 18.5087 71.2214 18.8869C71.0174 19.2799 70.9154 19.7389 70.9154 20.2629ZM80.5434 20.5249C80.5434 19.3749 80.7834 18.3709 81.2634 17.5119C81.7295 16.6526 82.4351 15.947 83.2944 15.4809C84.1684 15.0009 85.1874 14.7609 86.3514 14.7609C87.5164 14.7609 88.5284 15.0009 89.3874 15.4809C90.2462 15.9469 90.9514 16.6521 91.4174 17.5109C91.8974 18.3709 92.1374 19.3749 92.1374 20.5249C92.1374 21.6749 91.8974 22.6799 91.4174 23.5389C90.9463 24.3882 90.2418 25.085 89.3874 25.5469C88.5274 26.0269 87.5164 26.2679 86.3514 26.2679C85.1874 26.2679 84.1684 26.0279 83.2944 25.5479C82.4397 25.0855 81.7352 24.388 81.2644 23.5379C80.7834 22.6799 80.5434 21.6749 80.5434 20.5249ZM83.9274 20.5029C83.9274 21.0559 84.0294 21.5439 84.2334 21.9659C84.4374 22.3739 84.7214 22.6939 85.0854 22.9269C85.4494 23.1449 85.8714 23.2549 86.3514 23.2549C86.8314 23.2549 87.2544 23.1449 87.6184 22.9269C87.9824 22.6939 88.2584 22.3739 88.4484 21.9669C88.6514 21.5439 88.7534 21.0569 88.7534 20.5029C88.7534 19.9499 88.6514 19.4699 88.4484 19.0619C88.2742 18.6714 87.9845 18.3437 87.6184 18.1229C87.2391 17.8853 86.7988 17.7637 86.3514 17.7729C85.8714 17.7729 85.4494 17.8899 85.0854 18.1229C84.7163 18.3466 84.4203 18.6729 84.2334 19.0619C84.0294 19.4699 83.9274 19.9499 83.9274 20.5029ZM93.5514 26.0059V15.0879H96.9364V26.0059H93.5514ZM95.2554 13.3849C94.7164 13.3849 94.2574 13.2029 93.8794 12.8389C93.7015 12.6573 93.5616 12.4421 93.4678 12.2059C93.3741 11.9696 93.3284 11.717 93.3334 11.4629C93.3334 10.9239 93.5154 10.4729 93.8794 10.1089C94.0609 9.93097 94.2761 9.79105 94.5124 9.6973C94.7487 9.60355 95.0013 9.55785 95.2554 9.56287C95.7794 9.56287 96.2234 9.74487 96.5874 10.1089C96.9654 10.4729 97.1544 10.9239 97.1544 11.4629C97.1544 12.0009 96.9654 12.4599 96.5874 12.8389C96.4144 13.0161 96.207 13.1559 95.9779 13.2498C95.7488 13.3437 95.5029 13.3897 95.2554 13.3849ZM99.1254 31.2469V15.0859H102.204L102.378 16.4189C102.684 15.9089 103.172 15.5019 103.841 15.1959C104.52 14.8881 105.258 14.7315 106.003 14.7369C107.022 14.7369 107.91 14.9629 108.667 15.4139C109.424 15.8659 110.021 16.5139 110.458 17.3579C110.894 18.1879 111.127 19.1919 111.157 20.3709C111.186 21.5209 110.996 22.5479 110.589 23.4509C110.181 24.3379 109.592 25.0369 108.82 25.5459C108.048 26.0559 107.117 26.3109 106.025 26.3109C105.301 26.3169 104.582 26.1835 103.907 25.9179C103.252 25.6559 102.764 25.3209 102.444 24.9129V31.2459H99.1244L99.1254 31.2469ZM102.509 20.5469C102.509 21.0849 102.618 21.5659 102.837 21.9879C103.07 22.3959 103.383 22.7159 103.776 22.9479C104.183 23.1679 104.649 23.2759 105.173 23.2759C105.712 23.2759 106.171 23.1599 106.549 22.9269C106.942 22.6939 107.241 22.3739 107.444 21.9669C107.663 21.5589 107.772 21.0859 107.772 20.5469C107.772 20.0079 107.663 19.5349 107.444 19.1269C107.247 18.7259 106.936 18.392 106.549 18.1669C106.171 17.9339 105.712 17.8169 105.173 17.8169C104.649 17.8169 104.183 17.9339 103.776 18.1669C103.382 18.3865 103.057 18.7117 102.837 19.1059C102.618 19.5129 102.509 19.9949 102.509 20.5469ZM111.733 22.5559H114.769C114.769 22.9339 114.892 23.2329 115.14 23.4509C115.402 23.6689 115.78 23.7789 116.275 23.7789C116.566 23.7789 116.807 23.7419 116.996 23.6689C117.175 23.6134 117.334 23.5075 117.454 23.3639C117.567 23.2293 117.629 23.0594 117.629 22.8839C117.629 22.6939 117.564 22.5339 117.433 22.4029C117.316 22.2719 117.112 22.1699 116.821 22.0969L114.9 21.5949C113.822 21.3039 113.058 20.8749 112.607 20.3069C112.162 19.7576 111.923 19.07 111.93 18.3629C111.93 17.6349 112.112 17.0029 112.476 16.4629C112.858 15.9071 113.387 15.4687 114.004 15.1969C114.645 14.8909 115.365 14.7379 116.166 14.7379C117.374 14.7379 118.364 15.0729 119.136 15.7429C119.922 16.3979 120.337 17.2929 120.381 18.4289H117.345C117.36 18.0499 117.251 17.7519 117.018 17.5329C116.785 17.2999 116.479 17.1839 116.101 17.1839C115.766 17.1839 115.489 17.2709 115.271 17.4459C115.067 17.6059 114.965 17.8319 114.965 18.1229C114.965 18.3999 115.067 18.6029 115.271 18.7339C115.475 18.8509 115.751 18.9529 116.101 19.0399L118.044 19.5199C118.947 19.7389 119.631 20.1099 120.097 20.6339C120.563 21.1579 120.795 21.8279 120.795 22.6439C120.795 23.7639 120.381 24.6519 119.551 25.3069C118.721 25.9619 117.644 26.2899 116.319 26.2899C114.951 26.2899 113.851 25.9479 113.022 25.2639C112.206 24.5639 111.777 23.6619 111.733 22.5559ZM126.161 26.2899C124.88 26.2899 123.89 25.8899 123.191 25.0889C122.493 24.2889 122.143 23.2399 122.143 21.9439V15.0879H125.506V20.7219C125.506 21.7409 125.688 22.4249 126.052 22.7739C126.416 23.1239 126.896 23.2979 127.493 23.2979C128.265 23.2979 128.796 23.0799 129.087 22.6429C129.378 22.2069 129.524 21.5799 129.524 20.7649V15.0879H132.887V26.0059H129.721L129.502 24.7829C129.167 25.2339 128.694 25.5979 128.083 25.8749C127.48 26.1497 126.824 26.2913 126.161 26.2899ZM138.438 26.0059H135.053V15.0879H138.198L138.438 16.9659L138.067 16.5729C138.366 16.0117 138.821 15.5491 139.377 15.2409C139.959 14.8957 140.623 14.7146 141.299 14.7169C142.376 14.7169 143.22 14.9569 143.832 15.4369C144.458 15.9169 144.909 16.5509 145.185 17.3369H144.661C144.826 16.5653 145.28 15.8858 145.928 15.4369C146.598 14.9569 147.398 14.7169 148.33 14.7169C149.742 14.7169 150.783 15.0949 151.453 15.8519C152.122 16.6089 152.457 17.6139 152.457 18.8659V26.0059H149.182V19.6959C149.182 19.0109 149.014 18.5009 148.679 18.1659C148.359 17.8319 147.93 17.6639 147.391 17.6639C147.071 17.6639 146.765 17.7369 146.474 17.8829C146.183 18.0129 145.942 18.2539 145.753 18.6029C145.564 18.9379 145.469 19.4189 145.469 20.0449V26.0059H142.15V19.6959C142.15 19.0109 141.99 18.5089 141.67 18.1879C141.349 17.8539 140.92 17.6859 140.381 17.6859C140.061 17.6859 139.748 17.7589 139.442 17.9049C139.151 18.0349 138.911 18.2749 138.722 18.6249C138.533 18.9599 138.438 19.4329 138.438 20.0449V26.0059Z" fill="#2E0078"/>
</g>
</svg>
